<svg xmlns="http://www.w3.org/2000/svg" viewBox="0 0 128 128">
  <defs>
    <linearGradient id="green" x1="0" y1="0" x2="0" y2="1">
      <stop offset="0%" stop-color="#5EE56A"/>
      <stop offset="100%" stop-color="#28C840"/>
    </linearGradient>
    <linearGradient id="shine" x1="0" y1="0" x2="0" y2="1">
      <stop offset="0%" stop-color="#ffffff" stop-opacity="0.28"/>
      <stop offset="100%" stop-color="#ffffff" stop-opacity="0.0"/>
    </linearGradient>
  </defs>
  <rect x="8" y="8" width="112" height="112" rx="28" fill="url(#green)"/>
  <rect x="8" y="8" width="112" height="44" rx="28" fill="url(#shine)"/>
  <rect x="8.5" y="8.5" width="111" height="111" rx="27.5" fill="none" stroke="#1EA437" stroke-width="1"/>
  <path d="M30 36h68a12 12 0 0 1 12 12v24a12 12 0 0 1-12 12H62l-16 13a3 3 0 0 1-5-2.4V84h-11a12 12 0 0 1-12-12V48a12 12 0 0 1 12-12z" fill="#ffffff"/>
  <circle cx="50" cy="60" r="4.8" fill="#22B33C"/>
  <circle cx="64" cy="60" r="4.8" fill="#22B33C"/>
  <circle cx="78" cy="60" r="4.8" fill="#22B33C"/>
</svg>
